<?xml version="1.0" encoding="iso-8859-1"?>
<!-- Generator: Adobe Illustrator 19.0.0, SVG Export Plug-In . SVG Version: 6.00 Build 0)  -->
<svg xmlns="http://www.w3.org/2000/svg" xmlns:xlink="http://www.w3.org/1999/xlink" version="1.1" id="Capa_1" x="0px" y="0px" viewBox="0 0 438.792 438.792" style="enable-background:new 0 0 438.792 438.792;" xml:space="preserve" width="512px" height="512px">
<g>
	<g>
		<path d="M382.976,27.652H56.32C25.088,27.652,0,52.74,0,83.972V354.82c0,31.232,25.088,56.32,56.32,56.32h326.144    c31.232,0,56.32-25.088,56.32-56.32V83.972C439.296,52.74,413.696,27.652,382.976,27.652z M196.608,79.876    c12.8,0,23.04,10.24,23.04,23.04s-10.24,23.04-23.04,23.04c-12.8,0-23.04-10.24-23.04-23.04    C173.056,90.116,183.808,79.876,196.608,79.876z M131.584,79.876c12.8,0,23.04,10.24,23.04,23.04s-10.24,23.04-23.04,23.04    s-23.04-10.24-23.04-23.04C108.032,90.116,118.784,79.876,131.584,79.876z M71.168,79.876c12.8,0,23.04,10.24,23.04,23.04    s-10.24,23.04-23.04,23.04c-12.8,0-23.04-10.24-23.04-23.04S58.368,79.876,71.168,79.876z M382.976,379.908H56.32    c-14.336,0-25.6-11.264-25.6-25.6v-166.4h377.344v166.4h0.512C408.576,368.644,397.312,379.908,382.976,379.908z" fill="#16162B"/>
	</g>
</g>
<g>
</g>
<g>
</g>
<g>
</g>
<g>
</g>
<g>
</g>
<g>
</g>
<g>
</g>
<g>
</g>
<g>
</g>
<g>
</g>
<g>
</g>
<g>
</g>
<g>
</g>
<g>
</g>
<g>
</g>
</svg>
